<?xml version="1.0" encoding="UTF-8"?>
<svg id="Laag_2" data-name="Laag 2" xmlns="http://www.w3.org/2000/svg" viewBox="0 0 205.73 167.12">
  <defs>
    <style>
      .cls-1 {
        fill: #265787;
      }

      .cls-1, .cls-2 {
        stroke-width: 0px;
      }

      .cls-2 {
        fill: #ea7600;
      }
    </style>
  </defs>
  <g id="Laag_1-2" data-name="Laag 1">
    <g>
      <path class="cls-1" d="m107.25,93.96c.38-6.86,3.74-12.91,8.81-17.19,4.97-4.21,11.66-6.78,18.96-6.78s13.98,2.57,18.96,6.78c5.07,4.29,8.43,10.33,8.81,17.19.38,7.05-2.45,13.6-7.42,18.46-5.07,4.94-12.28,8.04-20.35,8.04s-15.3-3.1-20.36-8.04c-4.97-4.86-7.8-11.4-7.41-18.45Z"/>
      <path class="cls-2" d="m63.01,107.83c.05,2.69.9,7.9,2.19,11.98,2.7,8.63,7.28,16.6,13.65,23.64,6.54,7.23,14.59,13.03,23.89,17.16,9.78,4.33,20.37,6.54,31.37,6.52,10.98-.01,21.58-2.26,31.35-6.63,9.3-4.16,17.34-9.99,23.87-17.23,6.37-7.06,10.94-15.06,13.65-23.68,1.36-4.36,2.22-8.78,2.57-13.22.34-4.37.2-8.75-.42-13.13-1.21-8.53-4.16-16.53-8.71-23.82-4.15-6.7-9.51-12.57-15.88-17.51h.01S116.29,2.55,116.29,2.55c-.06-.04-.11-.09-.17-.13-4.22-3.24-11.31-3.23-15.94.02-4.69,3.28-5.23,8.71-1.05,12.13l-.02.02,26.8,21.8-81.7.09h-.11c-6.75,0-13.24,4.44-14.53,10.04-1.32,5.7,3.27,10.44,10.29,10.46v.03s41.4-.08,41.4-.08L7.37,113.63c-.09.07-.2.14-.28.21-6.97,5.34-9.22,14.21-4.83,19.83,4.46,5.71,13.93,5.72,20.97.03l40.33-33.01s-.59,4.46-.54,7.13Zm103.63,14.92c-8.31,8.47-19.94,13.27-32.53,13.29-12.61.02-24.24-4.74-32.55-13.19-4.06-4.12-7.04-8.86-8.88-13.9-1.8-4.96-2.5-10.23-2.04-15.54.44-5.19,1.98-10.15,4.45-14.63,2.42-4.41,5.76-8.39,9.88-11.75,8.08-6.58,18.36-10.15,29.12-10.16,10.77-.01,21.04,3.52,29.13,10.08,4.11,3.35,7.45,7.32,9.87,11.72,2.48,4.48,4.01,9.41,4.47,14.62.46,5.31-.24,10.56-2.05,15.53-1.84,5.06-4.82,9.8-8.88,13.94Z"/>
    </g>
  </g>
</svg>