<?xml version="1.0" encoding="UTF-8"?>
<svg id="Laag_2" data-name="Laag 2" xmlns="http://www.w3.org/2000/svg" viewBox="0 0 115.98 163.71">
  <defs>
    <style>
      .cls-1 {
        fill: #f16529;
      }

      .cls-1, .cls-2, .cls-3, .cls-4, .cls-5 {
        stroke-width: 0px;
      }

      .cls-3 {
        fill: #e44d26;
      }

      .cls-4 {
        fill: #fff;
      }

      .cls-5 {
        fill: #ebebeb;
      }
    </style>
  </defs>
  <g id="Laag_1-2" data-name="Laag 1">
    <g>
      <path class="cls-3" d="m115.98,32.17l-10.57,118.37-47.5,13.17-47.36-13.15L0,32.17h115.98,0Z"/>
      <path class="cls-1" d="m57.99,153.64l38.38-10.64,9.03-101.15h-47.41v111.79Z"/>
      <path class="cls-5" d="m37.45,70.89h20.54v-14.52H21.58l.35,3.9,3.57,40.01h32.49v-14.52h-19.21l-1.33-14.87Zm3.27,36.65h-14.58l2.03,22.8,29.74,8.26.07-.02v-15.11l-.06.02-16.17-4.37-1.03-11.58h0Z"/>
      <path class="cls-2" d="m10.79,0h7.38v7.29h6.75V0h7.38v22.08h-7.38v-7.39h-6.75v7.39h-7.38V0h0Zm31.21,7.32h-6.49V0h20.37v7.32h-6.5v14.76h-7.38V7.32h0ZM59.11,0h7.69l4.73,7.76,4.73-7.76h7.7v22.08h-7.35v-10.94l-5.08,7.85h-.13l-5.08-7.85v10.94h-7.22V0Zm28.52,0h7.38v14.78h10.38v7.3h-17.76V0h0Z"/>
      <path class="cls-4" d="m57.94,100.28h17.88l-1.69,18.83-16.19,4.37v15.11l29.77-8.25.22-2.45,3.41-38.23.35-3.9h-33.75v14.52h0Zm0-29.42v.04h35.07l.29-3.26.66-7.36.35-3.9h-36.37v14.48h0Z"/>
    </g>
  </g>
</svg>