<?xml version="1.0" encoding="UTF-8"?>
<svg id="Laag_2" data-name="Laag 2" xmlns="http://www.w3.org/2000/svg" viewBox="0 0 169.99 165.74">
  <defs>
    <style>
      .cls-1 {
        fill: #300;
      }

      .cls-1, .cls-2 {
        stroke-width: 0px;
      }

      .cls-2 {
        fill: #ff9a00;
      }
    </style>
  </defs>
  <g id="Laag_1-2" data-name="Laag 1">
    <g id="Layer_2" data-name="Layer 2">
      <g id="Surfaces">
        <g id="Drawing_Surface" data-name="Drawing Surface">
          <g id="Outline_no_shadow" data-name="Outline no shadow">
            <path class="cls-1" d="m30.1,0h109.79c16.65,0,30.1,13.46,30.1,30.1v105.54c0,16.65-13.46,30.1-30.1,30.1H30.1c-16.65,0-30.1-13.46-30.1-30.1V30.1C0,13.46,13.46,0,30.1,0Z"/>
          </g>
        </g>
      </g>
      <g id="Outlined_Mnemonics_Logos" data-name="Outlined Mnemonics Logos">
        <g id="Ai">
          <path class="cls-2" d="m82.38,99.45h-26.35l-5.38,16.65c-.14.64-.71,1.06-1.35.99h-13.32c-.78,0-.99-.42-.78-1.27l22.81-65.66c.21-.71.42-1.49.71-2.34.28-1.49.42-3.05.42-4.6-.07-.35.21-.71.57-.78h18.35c.57,0,.85.21.92.57l25.85,72.96c.21.78,0,1.13-.71,1.13h-14.8c-.5.07-.99-.28-1.13-.78l-5.81-16.86Zm-22.24-14.38h17.99c-.42-1.49-.99-3.26-1.63-5.1-.64-1.91-1.27-3.97-1.91-6.09-.71-2.2-1.35-4.32-2.05-6.52s-1.35-4.25-1.91-6.3c-.57-1.98-1.06-3.82-1.56-5.52h-.14c-.64,3.05-1.42,6.09-2.41,9.14-1.06,3.4-2.12,6.94-3.26,10.48-.99,3.61-2.05,6.94-3.12,9.92h0Z"/>
          <path class="cls-2" d="m120.27,54.54c-2.34.07-4.6-.85-6.3-2.48-1.63-1.77-2.48-4.11-2.41-6.52-.07-2.41.85-4.67,2.55-6.3,1.7-1.63,3.97-2.48,6.3-2.48,2.76,0,4.89.85,6.45,2.48,1.56,1.7,2.41,3.97,2.34,6.3.07,2.41-.78,4.75-2.48,6.52-1.63,1.7-4.04,2.62-6.45,2.48Zm-7.93,61.48v-54.54c0-.71.28-.99.92-.99h14.02c.64,0,.92.35.92.99v54.54c0,.78-.28,1.13-.92,1.13h-13.88c-.71,0-1.06-.42-1.06-1.13Z"/>
        </g>
      </g>
    </g>
  </g>
</svg>