<?xml version="1.0" encoding="UTF-8"?>
<svg id="Laag_2" data-name="Laag 2" xmlns="http://www.w3.org/2000/svg" viewBox="0 0 170.11 166">
  <defs>
    <style>
      .cls-1 {
        fill: #49021f;
      }

      .cls-1, .cls-2 {
        stroke-width: 0px;
      }

      .cls-2 {
        fill: #f36;
      }
    </style>
  </defs>
  <g id="Laag_1-2" data-name="Laag 1">
    <g>
      <g id="Surfaces">
        <g id="Publishing_Surface" data-name="Publishing Surface">
          <g id="Outline_no_shadow" data-name="Outline no shadow">
            <path class="cls-1" d="m30.12,0h109.86c16.66,0,30.12,13.48,30.12,30.15v105.7c0,16.67-13.47,30.15-30.12,30.15H30.12c-16.66,0-30.12-13.48-30.12-30.15V30.15C0,13.48,13.47,0,30.12,0Z"/>
          </g>
        </g>
      </g>
      <g id="Outlined_Mnemonics_Logos" data-name="Outlined Mnemonics Logos">
        <g id="Id">
          <path class="cls-2" d="m61.81,43.42v72.78c0,.78-.35,1.14-.99,1.14h-13.89c-.64,0-.92-.35-.92-1.14V43.42c0-.64.35-.92.99-.92h13.82c.43-.07.85.21.92.71.07.07.07.14.07.21Z"/>
          <path class="cls-2" d="m102.63,118.47c-5.25.07-10.49-.99-15.24-3.19-4.47-2.06-8.15-5.46-10.7-9.65-2.62-4.33-3.9-9.72-3.9-16.17-.07-5.25,1.28-10.43,3.9-14.97,2.69-4.61,6.59-8.44,11.27-11,4.96-2.77,10.92-4.11,17.93-4.11.35,0,.85,0,1.49.07.64.07,1.35.07,2.2.14v-22.42c0-.5.21-.78.71-.78h14.39c.35-.07.64.21.71.5v67.68c0,1.28.07,2.7.14,4.26.14,1.49.21,2.91.28,4.11,0,.5-.21.92-.71,1.14-3.69,1.56-7.58,2.7-11.55,3.41-3.54.64-7.23.99-10.92.99Zm6.95-14.19v-31.21c-.64-.14-1.28-.28-1.91-.35-.78-.07-1.56-.14-2.34-.14-2.76,0-5.53.57-8.01,1.84-2.41,1.21-4.47,2.98-6.02,5.25-1.56,2.27-2.34,5.32-2.34,9.01-.07,2.48.35,4.97,1.2,7.31.71,1.92,1.77,3.62,3.19,5.04,1.35,1.28,2.98,2.27,4.82,2.84,1.91.64,3.9.92,5.88.92,1.06,0,2.06-.07,2.98-.14.92.07,1.77-.07,2.55-.35Z"/>
        </g>
      </g>
    </g>
  </g>
</svg>