<?xml version="1.0" encoding="UTF-8"?>
<svg id="Laag_2" data-name="Laag 2" xmlns="http://www.w3.org/2000/svg" viewBox="0 0 167.03 167.03">
  <defs>
    <style>
      .cls-1, .cls-2 {
        stroke-width: 0px;
      }

      .cls-2 {
        fill: #f7df1e;
      }
    </style>
  </defs>
  <g id="Laag_1-2" data-name="Laag 1">
    <path class="cls-2" d="m0,0h167.03v167.03H0V0Z"/>
    <path class="cls-1" d="m43.92,139.58l12.78-7.74c2.47,4.37,4.71,8.07,10.09,8.07s8.41-2.02,8.41-9.87v-53.37h15.7v53.59c0,16.26-9.53,23.66-23.43,23.66-12.56,0-19.85-6.5-23.55-14.35m55.51-1.68l12.78-7.4c3.36,5.49,7.74,9.53,15.47,9.53,6.5,0,10.65-3.25,10.65-7.74,0-5.38-4.26-7.29-11.44-10.43l-3.92-1.68c-11.32-4.82-18.84-10.87-18.84-23.66,0-11.77,8.97-20.74,22.99-20.74,9.98,0,17.15,3.48,22.31,12.56l-12.22,7.85c-2.69-4.82-5.61-6.73-10.09-6.73s-7.51,2.92-7.51,6.73c0,4.71,2.92,6.62,9.64,9.53l3.92,1.68c13.34,5.72,20.85,11.55,20.85,24.67,0,14.13-11.1,21.86-26.01,21.86s-23.99-6.95-28.59-16.03"/>
  </g>
</svg>