<?xml version="1.0" encoding="UTF-8"?>
<svg id="Laag_2" data-name="Laag 2" xmlns="http://www.w3.org/2000/svg" viewBox="0 0 170.85 165.68">
  <defs>
    <style>
      .cls-1 {
        fill: #001e36;
      }

      .cls-1, .cls-2 {
        stroke-width: 0px;
      }

      .cls-2 {
        fill: #31a8ff;
      }
    </style>
  </defs>
  <g id="Laag_1-2" data-name="Laag 1">
    <g id="Layer_2" data-name="Layer 2">
      <g id="Surfaces">
        <g id="Photo_Surface" data-name="Photo Surface">
          <g id="Outline_no_shadow" data-name="Outline no shadow">
            <path class="cls-1" d="m30.26,0h110.34c16.73,0,30.26,13.45,30.26,30.09v105.5c0,16.64-13.53,30.09-30.26,30.09H30.26c-16.73,0-30.26-13.45-30.26-30.09V30.09C0,13.45,13.53,0,30.26,0Z"/>
          </g>
        </g>
      </g>
      <g id="Outlined_Mnemonics_Logos" data-name="Outlined Mnemonics Logos">
        <g id="Ps">
          <path class="cls-2" d="m38.44,116.19V43.33c0-.5.21-.78.71-.78,1.21,0,2.35,0,3.99-.07,1.71-.07,3.49-.07,5.41-.14,1.92-.07,3.99-.07,6.19-.14,2.21-.07,4.34-.07,6.48-.07,5.84,0,10.68.71,14.66,2.19,3.56,1.2,6.83,3.19,9.54,5.81,2.28,2.27,4.06,5.03,5.2,8.07,1.07,2.97,1.64,6.02,1.64,9.2,0,6.09-1.42,11.12-4.27,15.08s-6.83,6.94-11.46,8.64c-4.84,1.77-10.18,2.41-16.02,2.41-1.71,0-2.85,0-3.56-.07s-1.71-.07-3.06-.07v22.73c.07.5-.28.92-.78.99h-13.81c-.57,0-.85-.28-.85-.92Zm15.52-59.97v23.79c1,.07,1.92.14,2.78.14h3.77c2.78,0,5.55-.42,8.19-1.27,2.28-.64,4.27-1.98,5.84-3.75,1.49-1.77,2.21-4.18,2.21-7.29.07-2.19-.5-4.39-1.64-6.3-1.21-1.84-2.92-3.26-4.98-4.04-2.63-1.06-5.48-1.49-8.4-1.42-1.85,0-3.49,0-4.84.07-1.42-.07-2.42,0-2.92.07h0Z"/>
          <path class="cls-2" d="m136.68,75.69c-2.14-1.13-4.41-1.91-6.83-2.41-2.63-.57-5.27-.92-7.97-.92-1.42-.07-2.92.14-4.27.5-.93.21-1.71.71-2.21,1.42-.36.57-.57,1.27-.57,1.91s.28,1.27.71,1.84c.64.78,1.49,1.42,2.42,1.91,1.64.85,3.35,1.63,5.05,2.34,3.84,1.27,7.55,3.04,10.96,5.17,2.35,1.49,4.27,3.47,5.62,5.88,1.14,2.27,1.71,4.74,1.64,7.29.07,3.33-.93,6.66-2.78,9.42-1.99,2.83-4.77,5.03-7.97,6.3-3.49,1.49-7.76,2.27-12.89,2.27-3.27,0-6.48-.28-9.68-.92-2.49-.42-4.98-1.2-7.26-2.27-.5-.28-.85-.78-.78-1.35v-12.32c0-.21.07-.5.28-.64.21-.14.43-.07.64.07,2.78,1.63,5.7,2.76,8.83,3.47,2.71.71,5.55,1.06,8.4,1.06s4.63-.35,5.91-.99c1.14-.5,1.92-1.7,1.92-2.97,0-.99-.57-1.91-1.71-2.83-1.14-.92-3.49-1.98-6.98-3.33-3.63-1.27-6.98-2.97-10.11-5.1-2.21-1.56-4.06-3.61-5.41-6.02-1.14-2.27-1.71-4.74-1.64-7.22,0-3.04.85-5.95,2.42-8.57,1.78-2.83,4.41-5.1,7.47-6.51,3.35-1.7,7.55-2.48,12.6-2.48,2.92,0,5.91.21,8.83.64,2.14.28,4.2.85,6.12,1.63.28.07.57.35.71.64.07.28.14.57.14.85v11.54c0,.28-.14.57-.36.71-.64.14-1,.14-1.28,0Z"/>
        </g>
      </g>
    </g>
  </g>
</svg>