<?xml version="1.0" encoding="UTF-8"?>
<svg id="Laag_2" data-name="Laag 2" xmlns="http://www.w3.org/2000/svg" viewBox="0 0 188.24 167.48">
  <defs>
    <style>
      .cls-1 {
        fill: #fff;
      }

      .cls-1, .cls-2 {
        stroke-width: 0px;
      }

      .cls-2 {
        fill: #53c1de;
      }
    </style>
  </defs>
  <g id="Laag_1-2" data-name="Laag 1">
    <path class="cls-2" d="m154.77,54.28c-2-.69-4.02-1.32-6.06-1.91.34-1.37.65-2.75.94-4.13,4.59-22.27,1.59-40.2-8.65-46.11-9.82-5.66-25.88.24-42.1,14.36-1.6,1.39-3.16,2.83-4.69,4.3-1.02-.98-2.06-1.94-3.12-2.88C74.09,2.81,57.05-3.55,46.82,2.38c-9.81,5.68-12.72,22.54-8.59,43.64.41,2.09.87,4.17,1.39,6.23-2.41.68-4.74,1.41-6.97,2.19C12.73,61.4,0,72.29,0,83.58s13.66,23.37,34.42,30.46c1.68.57,3.38,1.1,5.09,1.59-.56,2.23-1.05,4.47-1.48,6.72-3.94,20.74-.86,37.2,8.92,42.84,10.11,5.83,27.07-.16,43.58-14.6,1.31-1.14,2.62-2.35,3.93-3.62,1.65,1.59,3.35,3.14,5.09,4.64,16,13.77,31.8,19.33,41.57,13.67,10.1-5.84,13.38-23.53,9.12-45.05-.32-1.64-.7-3.32-1.13-5.03,1.19-.35,2.36-.71,3.5-1.09,21.58-7.15,35.62-18.71,35.62-30.53s-13.14-22.3-33.47-29.3h0Z"/>
    <path class="cls-1" d="m150.09,106.48c-1.03.34-2.09.67-3.16.99-2.38-7.54-5.6-15.56-9.53-23.85,3.75-8.09,6.85-16.01,9.16-23.5,1.93.56,3.79,1.15,5.6,1.77,17.42,6,28.04,14.86,28.04,21.69,0,7.28-11.48,16.72-30.11,22.9h0Zm-7.73,15.32c1.88,9.52,2.15,18.12.9,24.84-1.12,6.04-3.38,10.07-6.16,11.69-5.93,3.43-18.62-1.03-32.3-12.8-1.57-1.35-3.15-2.79-4.73-4.32,5.3-5.8,10.61-12.55,15.78-20.04,9.1-.81,17.7-2.13,25.49-3.93.38,1.55.72,3.07,1.02,4.55h0Zm-78.18,35.94c-5.8,2.05-10.41,2.11-13.2.5-5.94-3.42-8.41-16.64-5.04-34.38.4-2.1.86-4.18,1.37-6.25,7.71,1.71,16.25,2.93,25.37,3.67,5.21,7.33,10.66,14.06,16.16,19.96-1.17,1.13-2.36,2.23-3.59,3.3-7.3,6.38-14.62,10.91-21.07,13.19h0Zm-27.15-51.3c-9.18-3.14-16.76-7.21-21.95-11.66-4.67-4-7.03-7.97-7.03-11.19,0-6.85,10.22-15.6,27.26-21.54,2.14-.74,4.3-1.42,6.48-2.04,2.36,7.66,5.45,15.67,9.17,23.77-3.78,8.22-6.91,16.36-9.29,24.11-1.56-.45-3.11-.93-4.65-1.45Zm9.1-61.96c-3.54-18.08-1.19-31.72,4.72-35.14,6.3-3.65,20.22,1.55,34.9,14.58.94.83,1.88,1.71,2.82,2.61-5.47,5.87-10.87,12.56-16.04,19.84-8.85.82-17.33,2.14-25.12,3.9-.48-1.92-.91-3.86-1.29-5.8h0Zm81.2,20.05c-1.84-3.18-3.75-6.32-5.72-9.41,6.01.76,11.76,1.77,17.16,3-1.62,5.2-3.64,10.64-6.02,16.21-1.74-3.3-3.54-6.57-5.42-9.8h0Zm-33.11-32.25c3.71,4.02,7.42,8.5,11.08,13.37-7.41-.35-14.84-.35-22.25,0,3.66-4.82,7.4-9.3,11.17-13.37h0Zm-33.32,32.31c-1.85,3.2-3.62,6.45-5.31,9.73-2.34-5.55-4.35-11.01-5.98-16.29,5.37-1.2,11.1-2.18,17.07-2.93-2,3.12-3.92,6.28-5.77,9.48Zm5.94,48.05c-6.16-.69-11.98-1.62-17.35-2.79,1.66-5.37,3.71-10.94,6.1-16.62,1.7,3.29,3.48,6.54,5.34,9.74,1.89,3.27,3.86,6.49,5.91,9.67Zm27.6,22.82c-3.81-4.11-7.61-8.66-11.33-13.55,3.6.14,7.28.21,11.01.21s7.63-.09,11.36-.25c-3.67,4.98-7.37,9.54-11.05,13.59Zm38.38-42.51c2.52,5.73,4.64,11.28,6.32,16.56-5.46,1.25-11.35,2.25-17.56,2.99,1.99-3.15,3.92-6.35,5.78-9.58,1.89-3.28,3.71-6.61,5.46-9.97h0Zm-12.43,5.96c-2.85,4.95-5.86,9.81-9.03,14.57-5.58.4-11.36.6-17.24.6s-11.56-.18-17.04-.54c-3.25-4.75-6.32-9.61-9.2-14.59-2.87-4.95-5.55-10.01-8.03-15.17,2.48-5.16,5.15-10.22,8.01-15.18h0c2.86-4.96,5.9-9.8,9.13-14.53,5.6-.42,11.34-.64,17.14-.64s11.58.22,17.17.65c3.19,4.72,6.22,9.55,9.07,14.48,2.87,4.95,5.57,9.98,8.12,15.1-2.51,5.17-5.21,10.26-8.09,15.24h0Zm16.59-89.8c6.3,3.64,8.75,18.3,4.79,37.52-.26,1.25-.54,2.5-.85,3.74-7.81-1.8-16.29-3.14-25.17-3.98-5.17-7.37-10.53-14.06-15.91-19.86,1.41-1.36,2.85-2.68,4.33-3.97,13.9-12.09,26.89-16.87,32.8-13.46h0Z"/>
    <path class="cls-2" d="m94.12,66.77c9.28,0,16.81,7.53,16.81,16.81s-7.53,16.81-16.81,16.81-16.81-7.53-16.81-16.81,7.53-16.81,16.81-16.81"/>
  </g>
</svg>