<?xml version="1.0" encoding="UTF-8"?>
<svg id="Laag_2" data-name="Laag 2" xmlns="http://www.w3.org/2000/svg" viewBox="0 0 146.98 166">
  <defs>
    <style>
      .cls-1, .cls-2, .cls-3 {
        stroke-width: 0px;
      }

      .cls-2 {
        fill: gray;
      }

      .cls-3 {
        fill: #4c4c4c;
      }
    </style>
  </defs>
  <g id="Laag_1-2" data-name="Laag 1">
    <g>
      <path class="cls-3" d="m146.98,116.2V38.73L79.89,0v29.74l26.28,15.22c1.04.69,1.04,2.07,0,2.42l-31.12,17.98c-1.04.69-2.07.35-2.77,0l-31.12-17.98c-1.04-.35-1.04-2.07,0-2.42l26.28-15.22V0L0,38.73v77.47-.35.35l25.59-14.87v-30.43c0-1.04,1.38-1.73,2.08-1.38l31.13,17.98c1.04.69,1.38,1.38,1.38,2.42v35.97c0,1.04-1.38,1.73-2.07,1.38l-26.28-15.22-25.59,14.87,67.09,39.08,67.09-38.73-25.59-14.87-26.28,15.22c-1.04.69-2.07,0-2.07-1.38v-35.97c0-1.04.69-2.07,1.38-2.42l31.13-17.98c1.04-.69,2.07,0,2.07,1.38v30.43l25.94,14.52Z"/>
      <path class="cls-1" d="m73.32,166l67.09-38.73-25.59-14.87-26.28,15.22c-1.04.69-2.07,0-2.07-1.38v-35.97c0-1.04.69-2.07,1.38-2.42l31.13-17.98c1.04-.69,2.07,0,2.07,1.38v30.43l25.59,14.87V38.73l-73.32,42.54v84.73Z"/>
      <path class="cls-2" d="m79.89,0v29.74l26.28,15.22c1.04.69,1.04,2.07,0,2.42l-31.12,17.98c-1.04.69-2.07.35-2.77,0l-31.12-17.98c-1.04-.35-1.04-2.07,0-2.42l26.28-15.22V0L0,38.73l73.32,42.54,73.32-42.54L79.89,0Z"/>
      <path class="cls-3" d="m58.45,127.61l-26.28-15.22-25.59,14.87,67.09,38.73v-84.73L0,38.73v77.47-.35.35l25.59-14.87v-30.43c0-1.04,1.38-1.73,2.08-1.38l31.13,17.98c1.04.69,1.38,1.38,1.38,2.42v35.97c.35,1.38-.69,2.42-1.73,1.73h0Z"/>
    </g>
  </g>
</svg>