<?xml version="1.0" encoding="UTF-8"?>
<svg id="Laag_2" data-name="Laag 2" xmlns="http://www.w3.org/2000/svg" viewBox="0 0 170.36 166.1">
  <defs>
    <style>
      .cls-1 {
        fill: #470137;
      }

      .cls-1, .cls-2 {
        stroke-width: 0px;
      }

      .cls-2 {
        fill: #ff61f6;
      }
    </style>
  </defs>
  <g id="Laag_1-2" data-name="Laag 1">
    <g id="Layer_2" data-name="Layer 2">
      <g id="Surfaces">
        <g id="UI_UX_Surface" data-name="UI UX Surface">
          <g id="Outline_no_shadow" data-name="Outline no shadow">
            <path class="cls-1" d="m30.15,0h110.01c16.7,0,30.19,13.49,30.19,30.19v105.76c0,16.7-13.49,30.15-30.15,30.15H30.15c-16.66.04-30.15-13.45-30.15-30.15V30.19C0,13.49,13.49,0,30.15,0Z"/>
          </g>
        </g>
      </g>
      <g id="Outlined_Mnemonics_Logos" data-name="Outlined Mnemonics Logos">
        <g id="Xd">
          <path class="cls-2" d="m89.56,43.69l-21.29,35.13,22.73,37.28c.13.3.21.55.13.84s-.34.08-.8.13h-16.23c-1.14,0-1.9-.08-2.4-.8-1.48-2.99-3.04-5.9-4.55-8.86-1.48-2.91-3.12-5.9-4.81-8.94s-3.42-6.11-5.1-9.23h-.13c-1.48,3.04-3.12,6.11-4.76,9.15-1.64,3.04-3.25,6.11-4.81,9.07-1.64,2.99-3.25,6.03-4.89,8.94-.3.72-.84.8-1.64.8h-15.6c-.3,0-.51.13-.51-.21-.08-.3,0-.55.13-.8l22.1-36.18-21.51-36.43c-.21-.3-.3-.55-.13-.72.13-.21.42-.3.72-.3h16.11c.34,0,.72.08,1.01.13.3.13.51.34.72.63,1.35,3.04,2.91,6.11,4.55,9.15,1.69,3.04,3.33,6.03,5.1,9.02,1.69,2.99,3.25,5.95,4.76,9.02h.13c1.48-3.12,3.04-6.16,4.6-9.15,1.56-2.99,3.2-5.95,4.81-8.94,1.64-2.99,3.2-6.03,4.76-8.94.08-.3.21-.55.42-.72.3-.13.55-.21.93-.13h14.97c.34-.08.72.13.8.51,0,.13-.13.38-.3.55h0Z"/>
          <path class="cls-2" d="m122.37,118.58c-5.27.08-10.5-1.01-15.26-3.2-4.47-2.07-8.18-5.48-10.71-9.66-2.61-4.34-3.92-9.74-3.92-16.19-.08-5.27,1.27-10.42,3.92-14.97,2.7-4.6,6.62-8.43,11.3-11.01,4.98-2.78,10.92-4.13,17.96-4.13.34,0,.84,0,1.48.08s1.35.08,2.19.13v-22.43c0-.51.21-.8.72-.8h14.42c.34-.08.63.21.72.51v67.72c0,1.27.08,2.7.13,4.26.13,1.48.21,2.91.3,4.13,0,.51-.21.93-.72,1.14-3.71,1.56-7.59,2.7-11.55,3.42-3.67.63-7.25,1.01-10.96,1.01Zm6.96-14.21v-31.25c-.63-.13-1.27-.3-1.9-.34-.8-.08-1.56-.13-2.36-.13-2.78,0-5.52.55-8.01,1.86-2.4,1.22-4.47,2.99-6.03,5.27-1.56,2.28-2.36,5.31-2.36,9.02-.08,2.49.34,4.98,1.22,7.29.72,1.9,1.77,3.63,3.2,5.06,1.35,1.27,2.99,2.28,4.81,2.83,1.9.63,3.92.93,5.9.93,1.05,0,2.07-.08,2.99-.13.89,0,1.69-.13,2.53-.42Z"/>
        </g>
      </g>
    </g>
  </g>
</svg>