<?xml version="1.0" encoding="UTF-8"?>
<svg id="Laag_2" data-name="Laag 2" xmlns="http://www.w3.org/2000/svg" xmlns:xlink="http://www.w3.org/1999/xlink" viewBox="0 0 436.91 134.56">
  <defs>
    <style>
      .cls-1 {
        fill: url(#Naamloos_verloop_12-4);
      }

      .cls-1, .cls-2, .cls-3, .cls-4, .cls-5, .cls-6 {
        stroke-width: 0px;
      }

      .cls-2 {
        fill: url(#Naamloos_verloop_12-2);
      }

      .cls-3 {
        fill: #393f2b;
      }

      .cls-4 {
        fill: url(#Naamloos_verloop_12);
      }

      .cls-5 {
        fill: #89c666;
      }

      .cls-6 {
        fill: url(#Naamloos_verloop_12-3);
      }
    </style>
    <radialGradient id="Naamloos_verloop_12" data-name="Naamloos verloop 12" cx="42.31" cy="12.04" fx="42.31" fy="12.04" r="13.61" gradientUnits="userSpaceOnUse">
      <stop offset="0" stop-color="#fff"/>
      <stop offset=".06" stop-color="#fff8e4"/>
      <stop offset=".19" stop-color="#ffebb3"/>
      <stop offset=".32" stop-color="#ffe089"/>
      <stop offset=".45" stop-color="#ffd666"/>
      <stop offset=".58" stop-color="#ffcf4c"/>
      <stop offset=".71" stop-color="#ffca39"/>
      <stop offset=".85" stop-color="#ffc72d"/>
      <stop offset="1" stop-color="#ffc72a"/>
    </radialGradient>
    <radialGradient id="Naamloos_verloop_12-2" data-name="Naamloos verloop 12" cx="102.92" cy="65.47" fx="102.92" fy="65.47" r="81.31" xlink:href="#Naamloos_verloop_12"/>
    <radialGradient id="Naamloos_verloop_12-3" data-name="Naamloos verloop 12" cx="320.85" cy="40.37" fx="320.85" fy="40.37" r="63.31" xlink:href="#Naamloos_verloop_12"/>
    <radialGradient id="Naamloos_verloop_12-4" data-name="Naamloos verloop 12" cx="311.7" cy="78.49" fx="311.7" fy="78.49" r="95.12" xlink:href="#Naamloos_verloop_12"/>
  </defs>
  <g id="Laag_1-2" data-name="Laag 1">
    <path class="cls-4" d="m23.28,14.86c12.69-1.03,25.46-.71,38.08.96,1.61.21,3-1.53,3-3,0-1.8-1.39-2.79-3-3-12.62-1.67-25.39-1.99-38.08-.96-1.61.13-3,1.28-3,3,0,1.52,1.38,3.13,3,3h0Z"/>
    <path class="cls-3" d="m91.66,6h-21.52c-3.79,0-6.62,4.68-7.21,10.33l-.05.6c.08.1.12.24.08.41-.05.18-.11.36-.16.54l-1.05,11.76c0,4.16,2.16,7.36,6.39,7.36h10.13c1.69,0,2.72,1.84,2.72,4.27,0,3.82-1.91,5.88-3.68,5.88-2.28,0-3.16-5.15-3.97-5.15h-12.81l-.79,9.76c-.08.56-.08.79-.08,1.35,0,5.08,2.94,8.89,6.11,8.89h21.25c3.65,0,7-5.02,7.38-10.49l1.44-15.74c0-4.26-1.82-6.77-6.39-6.77h-10.38c-1.74,0-2.83-1.67-2.83-4.2,0-3.77,1.81-5.8,3.62-5.8,2.54,0,3.12,5,3.99,5h12.95l.62-7.31c0-.62.08-.92.08-1.46,0-5.31-2.54-9.23-5.85-9.23Z"/>
    <path class="cls-3" d="m100.37,36.4c.49-4.57,2.32-6.4,6.61-6.4h9.93c1.73,0,3.9-1.01,3.9-3.9,0-2.31-1.59-3.1-3.25-3.1h-16.08l.28-3.23c.42-5.2,3.23-9.77,6.82-9.77h20.08c2.96,0,5.36,3.81,5.36,8.61,0,.35-.07.71-.07,1.2l-2.89,32.46c-.35,5.08-3.46,9.74-6.84,9.74h-19.98c-3.09,0-5.34-3.73-5.34-8.51,0-.49,0-.7.07-1.2l1.41-15.89Zm18.35,6.37c0-2.52-1.05-3.85-2.45-3.85-2.24,0-3.57,1.89-3.57,5.81,0,2.59,1.12,3.92,2.59,3.92,1.96,0,3.08-1.61,3.36-4.9,0-.35.07-.63.07-.98Z"/>
    <path class="cls-3" d="m164.06,62l2.26-27.02c0-2.54-1.13-4.02-2.61-4.02-1.98,0-3.53,1.9-3.53,5.64,0,3.25-.41,4.45-.41,6l-1.69,19.4h-4.11l1.62-19.26c0-1.41.65-3.53.65-7.76,0-2.54-1.06-4.02-2.68-4.02-2.05,0-2.96,1.55-3.25,4.66l-2.33,26.39h-13.26l3.67-42.19c.35-5.36,3.46-9.81,6.84-9.81h30.34c3.17,0,5.29,3.6,5.29,8.68l-2.82,33.58c-.56,5.01-3.25,9.74-6.84,9.74h-7.13Z"/>
    <path class="cls-3" d="m83.49,117l2.26-27.02c0-2.54-1.13-4.02-2.61-4.02-1.98,0-3.53,1.9-3.53,5.64,0,3.25-.41,4.45-.41,6l-1.69,19.4h-4.11l1.62-19.26c0-1.41.65-3.53.65-7.76,0-2.54-1.06-4.02-2.68-4.02-2.05,0-2.96,1.55-3.25,4.66l-2.33,26.39h-13.26l3.67-42.19c.35-5.36,3.46-9.81,6.84-9.81h30.34c3.17,0,5.29,3.6,5.29,8.68l-2.82,33.58c-.56,5.01-3.25,9.74-6.84,9.74h-7.13Z"/>
    <path class="cls-3" d="m114.28,117h-13.26l3.67-42.19c.35-5.36,3.46-9.81,6.84-9.81h7.2l-4.44,52Z"/>
    <path class="cls-3" d="m226.66,90.63c-.35,4.55-2.31,6.37-6.58,6.37h-10.02c-1.8,0-3.82.94-3.82,3.9,0,2.24,1.59,3.1,3.25,3.1h16.11l-.28,3.2c-.5,5.33-3.48,9.8-6.89,9.8h-19.97c-3.1,0-5.43-3.74-5.43-8.54,0-.49,0-.71.07-1.2l2.89-32.46c.35-5.15,3.67-9.81,6.84-9.81h20.05c2.87,0,5.25,3.78,5.25,8.47,0,.49-.07.7-.07,1.26l-1.4,15.89Zm-18.34-7c0,2.59.84,3.92,2.52,3.92,2.03,0,3.43-1.89,3.43-5.81,0-2.59-1.12-3.92-2.52-3.92-1.96,0-3.08,1.61-3.36,4.83-.07.35-.07.7-.07.98Z"/>
    <path class="cls-3" d="m257.32,87.3c0-1.81.02-2.95.05-3.82.05-1.76.13-3.51.24-5.27l.81-13.07,3.84-.14c3.18,0,5.36,3.6,5.36,8.68v1.13l-2.89,32.46c-.35,5.29-3.46,9.74-6.84,9.74h-14.54l1.83-21.03c.07-.49.07-.92.07-1.41,0-2.26-.56-3.53-2.54-3.53-1.69,0-3.6,1.98-3.6,5.64,0,1.14.02,2.03.05,2.77.07,1.99.05,3.97-.08,5.96l-.71,11.59h-9.7l3.67-42.19c.35-5.36,3.67-9.81,6.84-9.81h14.04l-1.98,22.72c-.07.49-.07.78-.07,1.13,0,2.47.92,3.74,2.68,3.74,1.62,0,3.46-1.69,3.46-5.29Z"/>
    <path class="cls-3" d="m338.8,107.26c-.35,5.08-3.46,9.74-6.84,9.74h-20.18c-3.18,0-5.43-3.81-5.43-8.68,0-.35.07-.71.07-1.06l2.89-32.46c.35-5.36,3.46-9.81,6.84-9.81h20.25c3.03,0,5.22,3.67,5.22,8.68v1.13l-2.82,32.46Zm-11.97-17.61c0-.35.07-.63.07-.98,0-2.52-1.12-3.85-2.52-3.85-2.03,0-3.15,1.61-3.43,4.83l-.84,9.1c-.07.07-.07.42-.07.98,0,2.59,1.12,3.92,2.59,3.92,1.96,0,3.08-1.61,3.36-4.9l.84-9.1Z"/>
    <path class="cls-3" d="m361.35,117l1.48-17.92c0-3.25-.85-4.87-2.47-4.87-1.98,0-3.17,1.62-3.6,4.87,0,3.81-.17,4.35-.17,9.39l-.22,8.53h-8.14c-3.18,0-5.43-3.81-5.43-8.68,0-.35.07-.71.07-1.06l2.89-32.53c.35-5.36,3.67-9.74,6.84-9.74h19.97c3.67,0,5.36,4.09,5.36,9.74l-.71,7.83c-.35,3.6-3.1,7.06-6.42,8.26,3.67,2.19,5.22,4.16,5.22,8.04l-1.55,18.13h-13.12Zm.34-39.25c-1.96,0-3.43,1.82-3.43,5.74,0,2.59.84,3.92,2.59,3.92,1.96,0,3.08-1.61,3.36-4.83,0-3.22-.84-4.83-2.52-4.83Z"/>
    <path class="cls-3" d="m409.52,65c2.95,0,5.22,3.64,5.22,8.31,0,.34-.07.69-.07,1.24l-1.31,15.25c-.55,5.49-3.5,9.2-6.87,9.2h-10.08c-1.62,0-3.16,1.97-3.37,4.57l-1.05,12.43h-12.95l3.6-41.38c.35-5.12,3.39-9.62,6.71-9.62h20.17Zm-14.72,20.31c0,2.59.91,4.48,2.52,4.48,2.17,0,3.5-2.87,3.5-6.51,0-2.8-.84-5.46-2.45-5.46-2.1,0-3.57,3.92-3.57,7.49Z"/>
    <path class="cls-3" d="m146.8,65h-23.64l-4.45,52h23.57c6.14,0,9.1-4.37,9.81-12.35l2.47-27.73c.07-.78.07-1.48.07-2.12,0-6.56-2.61-9.81-7.83-9.81Zm-7.03,32.4c-.13,1.56-1.5,2.73-3.07,2.6h0c-1.56-.13-2.73-1.5-2.6-3.07l1.58-19.27c.13-1.56,1.5-2.73,3.07-2.6,1.56.13,2.73,1.5,2.6,3.07l-1.58,19.27Z"/>
    <path class="cls-3" d="m183.8,65h-23.64l-4.45,52h23.57c6.14,0,9.1-4.37,9.81-12.35l2.47-27.73c.07-.78.07-1.48.07-2.12,0-6.56-2.61-9.81-7.83-9.81Zm-7.03,32.4c-.13,1.56-1.5,2.73-3.07,2.6h0c-1.56-.13-2.73-1.5-2.6-3.07l1.58-19.27c.13-1.56,1.5-2.73,3.07-2.6,1.56.13,2.73,1.5,2.6,3.07l-1.58,19.27Z"/>
    <path class="cls-3" d="m296.8,65h-23.64l-4.45,52h23.57c6.14,0,9.1-4.37,9.81-12.35l2.47-27.73c.07-.78.07-1.48.07-2.12,0-6.56-2.61-9.81-7.83-9.81Zm-7.03,32.4c-.13,1.56-1.5,2.73-3.07,2.6h0c-1.56-.13-2.73-1.5-2.6-3.07l1.58-19.27c.13-1.56,1.5-2.73,3.07-2.6,1.56.13,2.73,1.5,2.6,3.07l-1.58,19.27Z"/>
    <path class="cls-5" d="m83.25,18.8c0,2.54,1.09,4.2,2.83,4.2h10.38c4.56,0,6.39,2.51,6.39,6.77l-1.44,15.74c-.38,5.47-3.73,10.49-7.38,10.49h-21.25c-3.17,0-6.11-3.81-6.11-8.89,0-.56,0-.79.08-1.35l.79-9.76h12.81c.81,0,1.69,5.15,3.97,5.15,1.76,0,3.68-2.06,3.68-5.88,0-2.43-1.03-4.27-2.72-4.27h-10.13c-4.24,0-6.39-3.2-6.39-7.36l1.19-13.31c.59-5.65,3.42-10.33,7.21-10.33h21.52c3.31,0,5.85,3.92,5.85,9.23,0,.54-.08.85-.08,1.46l-.62,7.31h-12.95c-.87,0-1.45-5-3.99-5-1.81,0-3.62,2.03-3.62,5.8Z"/>
    <path class="cls-5" d="m106.37,30.4c.49-4.57,2.32-6.4,6.61-6.4h9.93c1.73,0,3.9-1.01,3.9-3.9,0-2.31-1.59-3.1-3.25-3.1h-16.08l.28-3.23c.42-5.2,3.23-9.77,6.82-9.77h20.08c2.96,0,5.36,3.81,5.36,8.61,0,.35-.07.71-.07,1.2l-2.89,32.46c-.35,5.08-3.46,9.74-6.84,9.74h-19.98c-3.09,0-5.34-3.73-5.34-8.51,0-.49,0-.7.07-1.2l1.41-15.89Zm18.35,6.37c0-2.52-1.05-3.85-2.45-3.85-2.24,0-3.57,1.89-3.57,5.81,0,2.59,1.12,3.92,2.59,3.92,1.96,0,3.08-1.61,3.36-4.9,0-.35.07-.63.07-.98Z"/>
    <path class="cls-5" d="m170.06,56l2.26-27.02c0-2.54-1.13-4.02-2.61-4.02-1.98,0-3.53,1.9-3.53,5.64,0,3.25-.41,4.45-.41,6l-1.69,19.4h-4.11l1.62-19.26c0-1.41.65-3.53.65-7.76,0-2.54-1.06-4.02-2.68-4.02-2.05,0-2.96,1.55-3.25,4.66l-2.33,26.39h-13.26l3.67-42.19c.35-5.36,3.46-9.81,6.84-9.81h30.34c3.17,0,5.29,3.6,5.29,8.68l-2.82,33.58c-.56,5.01-3.25,9.74-6.84,9.74h-7.13Z"/>
    <path class="cls-5" d="m89.49,111l2.26-27.02c0-2.54-1.13-4.02-2.61-4.02-1.98,0-3.53,1.9-3.53,5.64,0,3.25-.41,4.45-.41,6l-1.69,19.4h-4.11l1.62-19.26c0-1.41.65-3.53.65-7.76,0-2.54-1.06-4.02-2.68-4.02-2.05,0-2.96,1.55-3.25,4.66l-2.33,26.39h-13.26l3.67-42.19c.35-5.36,3.46-9.81,6.84-9.81h30.34c3.17,0,5.29,3.6,5.29,8.68l-2.82,33.58c-.56,5.01-3.25,9.74-6.84,9.74h-7.13Z"/>
    <path class="cls-5" d="m120.28,111h-13.26l3.67-42.19c.35-5.36,3.46-9.81,6.84-9.81h7.2l-4.44,52Z"/>
    <path class="cls-5" d="m232.66,84.63c-.35,4.55-2.31,6.37-6.58,6.37h-10.02c-1.8,0-3.82.94-3.82,3.9,0,2.24,1.59,3.1,3.25,3.1h16.11l-.28,3.2c-.5,5.33-3.48,9.8-6.89,9.8h-19.97c-3.1,0-5.43-3.74-5.43-8.54,0-.49,0-.71.07-1.2l2.89-32.46c.35-5.15,3.67-9.81,6.84-9.81h20.05c2.87,0,5.25,3.78,5.25,8.47,0,.49-.07.7-.07,1.26l-1.4,15.89Zm-18.34-7c0,2.59.84,3.92,2.52,3.92,2.03,0,3.43-1.89,3.43-5.81,0-2.59-1.12-3.92-2.52-3.92-1.96,0-3.08,1.61-3.36,4.83-.07.35-.07.7-.07.98Z"/>
    <path class="cls-5" d="m263.32,81.3c0-1.81.02-2.95.05-3.82.05-1.76.13-3.51.24-5.27l.81-13.07,3.84-.14c3.18,0,5.36,3.6,5.36,8.68v1.13l-2.89,32.46c-.35,5.29-3.46,9.74-6.84,9.74h-14.54l1.83-21.03c.07-.49.07-.92.07-1.41,0-2.26-.56-3.53-2.54-3.53-1.69,0-3.6,1.98-3.6,5.64,0,1.14.02,2.03.05,2.77.07,1.99.05,3.97-.08,5.96l-.71,11.59h-9.7l3.67-42.19c.35-5.36,3.67-9.81,6.84-9.81h14.04l-1.98,22.72c-.07.49-.07.78-.07,1.13,0,2.47.92,3.74,2.68,3.74,1.62,0,3.46-1.69,3.46-5.29Z"/>
    <path class="cls-5" d="m344.8,101.26c-.35,5.08-3.46,9.74-6.84,9.74h-20.18c-3.18,0-5.43-3.81-5.43-8.68,0-.35.07-.71.07-1.06l2.89-32.46c.35-5.36,3.46-9.81,6.84-9.81h20.25c3.03,0,5.22,3.67,5.22,8.68v1.13l-2.82,32.46Zm-11.97-17.61c0-.35.07-.63.07-.98,0-2.52-1.12-3.85-2.52-3.85-2.03,0-3.15,1.61-3.43,4.83l-.84,9.1c-.07.07-.07.42-.07.98,0,2.59,1.12,3.92,2.59,3.92,1.96,0,3.08-1.61,3.36-4.9l.84-9.1Z"/>
    <path class="cls-5" d="m367.35,111l1.48-17.92c0-3.25-.85-4.87-2.47-4.87-1.98,0-3.17,1.62-3.6,4.87,0,3.81-.17,4.35-.17,9.39l-.22,8.53h-8.14c-3.18,0-5.43-3.81-5.43-8.68,0-.35.07-.71.07-1.06l2.89-32.53c.35-5.36,3.67-9.74,6.84-9.74h19.97c3.67,0,5.36,4.09,5.36,9.74l-.71,7.83c-.35,3.6-3.1,7.06-6.42,8.26,3.67,2.19,5.22,4.16,5.22,8.04l-1.55,18.13h-13.12Zm.34-39.25c-1.96,0-3.43,1.82-3.43,5.74,0,2.59.84,3.92,2.59,3.92,1.96,0,3.08-1.61,3.36-4.83,0-3.22-.84-4.83-2.52-4.83Z"/>
    <path class="cls-5" d="m415.52,59c2.95,0,5.22,3.64,5.22,8.31,0,.34-.07.69-.07,1.24l-1.31,15.25c-.55,5.49-3.5,9.2-6.87,9.2h-10.08c-1.62,0-3.16,1.97-3.37,4.57l-1.05,12.43h-12.95l3.6-41.38c.35-5.12,3.39-9.62,6.71-9.62h20.17Zm-14.72,20.31c0,2.59.91,4.48,2.52,4.48,2.17,0,3.5-2.87,3.5-6.51,0-2.8-.84-5.46-2.45-5.46-2.1,0-3.57,3.92-3.57,7.49Z"/>
    <path class="cls-5" d="m152.8,59h-23.64l-4.45,52h23.57c6.14,0,9.1-4.37,9.81-12.35l2.47-27.73c.07-.78.07-1.48.07-2.12,0-6.56-2.61-9.81-7.83-9.81Zm-7.03,32.4c-.13,1.56-1.5,2.73-3.07,2.6h0c-1.56-.13-2.73-1.5-2.6-3.07l1.58-19.27c.13-1.56,1.5-2.73,3.07-2.6,1.56.13,2.73,1.5,2.6,3.07l-1.58,19.27Z"/>
    <path class="cls-5" d="m189.8,59h-23.64l-4.45,52h23.57c6.14,0,9.1-4.37,9.81-12.35l2.47-27.73c.07-.78.07-1.48.07-2.12,0-6.56-2.61-9.81-7.83-9.81Zm-7.03,32.4c-.13,1.56-1.5,2.73-3.07,2.6h0c-1.56-.13-2.73-1.5-2.6-3.07l1.58-19.27c.13-1.56,1.5-2.73,3.07-2.6,1.56.13,2.73,1.5,2.6,3.07l-1.58,19.27Z"/>
    <path class="cls-5" d="m302.8,59h-23.64l-4.45,52h23.57c6.14,0,9.1-4.37,9.81-12.35l2.47-27.73c.07-.78.07-1.48.07-2.12,0-6.56-2.61-9.81-7.83-9.81Zm-7.03,32.4c-.13,1.56-1.5,2.73-3.07,2.6h0c-1.56-.13-2.73-1.5-2.6-3.07l1.58-19.27c.13-1.56,1.5-2.73,3.07-2.6,1.56.13,2.73,1.5,2.6,3.07l-1.58,19.27Z"/>
    <path class="cls-2" d="m30.79,8.65c-7.58-.68-16-.28-22.46,4.21S-1.58,25.34.71,33.08s8.83,12.72,15.48,16.4c8.04,4.45,16.45,8.3,24.74,12.26,16.97,8.11,34.19,15.7,51.52,23.01s34.61,14.25,51.99,21.19c8.74,3.49,17.46,7.04,26.28,10.35s17.39,6.14,26.63,6.25c2.4.03,4.77-.19,7.15-.54,1.6-.24,2.49-2.27,2.1-3.69-.47-1.72-2.08-2.33-3.69-2.1-8.38,1.24-16.86-.9-24.75-3.6-8.46-2.89-16.75-6.31-25.05-9.64-16.63-6.66-33.28-13.28-49.83-20.16s-32.78-13.9-48.94-21.38c-8.16-3.78-16.29-7.65-24.35-11.64-3.84-1.89-7.71-3.77-11.43-5.88-2.88-1.63-5.61-3.43-7.93-5.8s-4.06-5.17-4.56-8.45c-.41-2.66.26-5.58,1.79-8.01,3.65-5.8,11.23-7.31,17.65-7.29,1.76,0,3.51.11,5.26.27,1.62.15,3-1.48,3-3,0-1.74-1.38-2.85-3-3h0Z"/>
    <path class="cls-6" d="m236.32,62.03c17.6-15.28,36.31-31.07,59.69-36.11,24.5-5.28,50,1.18,72.36,11.36,13,5.92,25.38,13.1,37.66,20.38,3.33,1.97,6.35-3.21,3.03-5.18-22.32-13.24-45.47-26.41-71.13-31.8-12.84-2.7-26.05-3.45-39.04-1.38-12.28,1.95-23.85,6.85-34.39,13.37-11.65,7.21-22.1,16.15-32.42,25.11-1.22,1.06-1.09,3.15,0,4.24,1.21,1.21,3.02,1.07,4.24,0h0Z"/>
    <path class="cls-1" d="m421.25,81.09c5.5,7.75,9.18,17.11,9.61,26.66.2,4.45-.4,8.98-2.99,12.72-1.98,2.86-5.38,4.96-8.69,6.11-8.48,2.97-18.18,2.25-26.97.37-9.93-2.13-19.34-6.1-28.22-10.97s-17.9-10.99-26.55-16.94-17.65-11.94-26.76-17.5c-18.22-11.11-37.1-21.09-56.21-30.54-9.54-4.72-19.14-9.31-28.76-13.85-4.81-2.27-9.62-4.53-14.44-6.79s-9.65-4.63-14.74-6.24c-2.6-.82-5.23-1.35-7.93-1.68-1.61-.2-3,1.52-3,3,0,1.78,1.38,2.8,3,3,5.09.62,9.97,2.64,14.6,4.75,4.96,2.27,9.88,4.62,14.82,6.94,9.91,4.66,19.81,9.36,29.64,14.19,19.5,9.57,38.78,19.63,57.4,30.83,9.34,5.62,18.46,11.59,27.45,17.76,8.91,6.12,17.8,12.3,27.24,17.58s19.03,9.48,29.34,11.9c9.47,2.22,19.92,3.23,29.43.67,4.27-1.15,8.4-3.12,11.65-6.16,3.56-3.34,5.67-7.9,6.36-12.69,1.47-10.13-1.54-20.98-6.25-29.91-1.14-2.16-2.43-4.24-3.85-6.23-.94-1.32-2.62-1.95-4.1-1.08-1.3.76-2.02,2.78-1.08,4.1h0Z"/>
  </g>
</svg>